PathFileType	4	(X/Y/Z)	3_coords_data.trc
DataRate	CameraRate	NumFrames	NumMarkers	Units	OrigDataRate	OrigDataStartFrame	OrigNumFrames
30.0	30.0	8	21	m	30.0	10	48
Frame#	Time	THUMB_TIP	THUMB_IP	THUMB_MCP	THUMB_CMC	INDEX_TIP	INDEX_DIP	INDEX_PIP	INDEX_MCP	MIDDLE_TIP	MIDDLE_DIP	MIDDLE_PIP	MIDDLE_MCP	RING_TIP	RING_DIP	RING_PIP	RING_MCP	PINKY_TIP	PINKY_DIP	PINKY_PIP	PINKY_MCP	WRIST
X1	Y1	Z1	X2	Y2	Z2	X3	Y3	Z3	X4	Y4	Z4	X5	Y5	Z5	X6	Y6	Z6	X7	Y7	Z7	X8	Y8	Z8	X9	Y9	Z9	X10	Y10	Z10	X11	Y11	Z11	X12	Y12	Z12	X13	Y13	Z13	X14	Y14	Z14	X15	Y15	Z15	X16	Y16	Z16	X17	Y17	Z17	X18	Y18	Z18	X19	Y19	Z19	X20	Y20	Z20	X21	Y21	Z21
9	0.3	-0.06020949935913086	-0.10080400085449219	0.9590499877929688	-0.06905719757080078	-0.08880930328369141	0.9837479858398438	-0.08040309906005859	-0.08189019775390625	1.0139600219726563	-0.08806199645996093	-0.058225399017333986	1.0411199951171874	-0.04346379852294922	-0.051217899322509766	0.90918701171875	-0.057944400787353516	-0.054205001831054686	0.9275910034179687	-0.07201750183105468	-0.056777198791503905	0.94743798828125	-0.08714630126953125	-0.059148101806640624	0.982780029296875	-0.04592959976196289	-0.025804399490356445	0.9016519775390625	-0.05946269989013672	-0.028715700149536134	0.9217150268554688	-0.07501809692382813	-0.03235039901733398	0.9467109985351563	-0.08961810302734376	-0.036980701446533204	0.9824459838867188	-0.04519070053100586	0.000624002993106842	0.92352197265625	-0.061297000885009764	-0.0025225200653076173	0.9388939819335937	-0.07899019622802735	-0.0077362098693847655	0.9580050048828125	-0.09324189758300781	-0.018486200332641603	0.9917039794921875	-0.05235540008544922	0.021331300735473634	0.951302978515625	-0.06613600158691406	0.016488899230957033	0.9646640014648438	-0.0782654037475586	0.010148300170898437	0.9784730224609375	-0.08842559814453126	-0.0021984400749206537	1.0021900024414063	-0.11222899627685547	-0.03537670135498047	1.0624200439453124
10	0.3333333333333333	-0.06114189910888672	-0.09869319915771485	0.9579119873046875	-0.06989309692382813	-0.08749449920654297	0.9829010009765625	-0.08078939819335937	-0.08130549621582031	1.0134500122070313	-0.08809320068359375	-0.058088199615478515	1.04093994140625	-0.04197829818725586	-0.049498401641845706	0.9118070068359375	-0.05817160034179687	-0.0526963005065918	0.9284390258789063	-0.07336730194091796	-0.055595401763916016	0.9471719970703125	-0.08848639678955078	-0.058715801239013675	0.9825170288085937	-0.04472520065307617	-0.02465250015258789	0.9035280151367188	-0.059574901580810545	-0.02761440086364746	0.922343017578125	-0.0763062973022461	-0.031445199966430665	0.9463829956054688	-0.09124120330810546	-0.0366343994140625	0.9825180053710938	-0.043631401062011715	-0.0008842110037803651	0.9259249877929687	-0.06081039810180664	-0.003123219966888427	0.9397459716796875	-0.07978589630126953	-0.007635469913482666	0.9578309936523437	-0.09411109924316406	-0.018201400756835937	0.9917860107421875	-0.0495536994934082	0.018451900482177735	0.9530869750976563	-0.06472869873046876	0.015125699996948242	0.9651749877929687	-0.07781580352783203	0.009660860061645508	0.9783800048828125	-0.08885230255126954	-0.0020655000209808348	1.0024600219726563	-0.11187400054931641	-0.035151298522949216	1.0625699462890625
11	0.36666666666666664	-0.06232440185546875	-0.09714250183105469	0.9569819946289062	-0.07091290283203125	-0.08642849731445312	0.9821190185546875	-0.0813104019165039	-0.08055339813232422	1.0130700073242187	-0.08822049713134765	-0.057600200653076174	1.04081005859375	-0.04482630157470703	-0.049599098205566405	0.910572021484375	-0.06069250106811523	-0.052640800476074216	0.9273480224609375	-0.07544390106201172	-0.055469898223876955	0.9466190185546876	-0.08980110168457031	-0.05843199920654297	0.982427978515625	-0.04646220016479492	-0.024600000381469728	0.90302197265625	-0.061245399475097655	-0.027483800888061523	0.9221110229492188	-0.07777899932861328	-0.031233800888061523	0.9461749877929687	-0.09258989715576171	-0.03637590026855469	0.9826909790039062	-0.04537099838256836	-0.0009643570184707641	0.9255	-0.06255730056762696	-0.003047990083694458	0.9393170166015625	-0.08143879699707031	-0.0074106698036193845	0.9574500122070313	-0.09523200225830078	-0.017822999954223633	0.991697021484375	-0.050607898712158206	0.017620899200439452	0.9521939697265625	-0.06575330352783203	0.014699099540710449	0.9644420166015625	-0.07890609741210937	0.009548640251159668	0.9777520141601562	-0.0896886978149414	-0.001707559943199157	1.0023200073242187	-0.11158200073242187	-0.034651298522949216	1.0626099853515625
12	0.4	-0.06349020004272461	-0.09660749816894532	0.9563809814453125	-0.0718895034790039	-0.08602239990234375	0.98168701171875	-0.08201110076904297	-0.08022000122070312	1.0126900024414063	-0.0885823974609375	-0.057277099609375	1.040449951171875	-0.047310699462890626	-0.05003609848022461	0.908947998046875	-0.062483001708984375	-0.052916000366210934	0.926572998046875	-0.07664730072021485	-0.055518699645996095	0.946333984375	-0.0909000015258789	-0.05824380111694336	0.9821669921875	-0.04829339981079102	-0.025723800659179688	0.9016900024414063	-0.062351001739501956	-0.028306100845336916	0.9214949951171875	-0.07824109649658204	-0.03168630027770996	0.9461190185546875	-0.09333529663085938	-0.03615810012817383	0.9825159912109375	-0.04709989929199219	-0.001276010036468505	0.9244349975585937	-0.06411100006103515	-0.00333240008354187	0.9384940185546875	-0.08270149993896485	-0.007589610099792481	0.9568280029296875	-0.09595999908447266	-0.01765909957885742	0.9913920288085938	-0.051915599822998044	0.017102399826049806	0.9510170288085937	-0.06694899749755859	0.014339699745178222	0.963489990234375	-0.07986209869384765	0.009376720428466797	0.977177978515625	-0.09038800048828124	-0.0014896700382232661	1.0018099975585937	-0.11198100280761719	-0.034220500946044924	1.0625799560546876
13	0.43333333333333335	-0.06396289825439454	-0.09668910217285157	0.9562529907226562	-0.07228399658203125	-0.08616169738769532	0.981551025390625	-0.0822936019897461	-0.08032019805908203	1.0125800170898438	-0.08864450073242187	-0.05735800170898438	1.040239990234375	-0.04865280151367188	-0.05056859970092773	0.9079019775390625	-0.06315060043334961	-0.053409801483154294	0.9262030029296875	-0.07689739990234375	-0.05592720031738281	0.9462680053710938	-0.09122010040283203	-0.058430599212646483	0.9822169799804688	-0.04950619888305664	-0.02648889923095703	0.900864013671875	-0.0629542007446289	-0.029009899139404296	0.9211010131835937	-0.07839859771728516	-0.03217340087890625	0.9461300048828125	-0.09358699798583985	-0.0363203010559082	0.9825050048828124	-0.04767509841918945	-0.001578940033912658	0.9240900268554687	-0.06461019897460937	-0.00366985011100769	0.9382319946289063	-0.08298899841308593	-0.007891409873962403	0.9566840209960937	-0.09616439819335937	-0.017781400680541994	0.9913900146484375	-0.05246649932861328	0.01678879928588867	0.9505399780273438	-0.06739219665527343	0.014037699699401855	0.9631439819335937	-0.0801281967163086	0.009063940048217773	0.9768709716796875	-0.09066809844970704	-0.001571840047836303	1.0016599731445313	-0.11218299865722656	-0.03428409957885742	1.062489990234375
14	0.4666666666666667	-0.06398920059204101	-0.09724349975585937	0.9564429931640624	-0.07233580017089844	-0.08656539916992187	0.9816719970703125	-0.08234709930419921	-0.08074349975585937	1.0126799926757812	-0.0886906967163086	-0.0576879997253418	1.0403599853515626	-0.049343799591064455	-0.05160710144042969	0.9072739868164063	-0.0633661994934082	-0.054303600311279294	0.9260919799804688	-0.07674710083007813	-0.05660850143432617	0.9464219970703125	-0.09098650360107421	-0.05882270050048828	0.9821599731445313	-0.04976850128173828	-0.027073799133300783	0.9006489868164063	-0.06301060104370117	-0.02955850028991699	0.9210609741210938	-0.078285400390625	-0.03267279815673828	0.946218994140625	-0.09343810272216797	-0.03676470184326172	0.9824979858398437	-0.047837799072265624	-0.002104949951171875	0.9238380126953125	-0.06467720031738282	-0.004218369960784912	0.9381680297851562	-0.0829446029663086	-0.008433420181274414	0.9567239990234375	-0.09612069702148437	-0.018216999053955078	0.991344970703125	-0.05261750030517578	0.016357099533081055	0.95035400390625	-0.06747570037841796	0.013498600006103516	0.9630670166015625	-0.08021019744873047	0.008556529998779297	0.9768099975585938	-0.09069619750976562	-0.002026829957962036	1.0017100219726562	-0.11221199798583985	-0.03465169906616211	1.0623900146484375
15	0.5	-0.06380730056762696	-0.09794850158691407	0.956698974609375	-0.07229540252685547	-0.08719280242919922	0.9819860229492188	-0.08231829833984375	-0.08131439971923828	1.0128699951171876	-0.08892400360107422	-0.058209098815917966	1.0404599609375	-0.04948460006713867	-0.05257109832763672	0.9071680297851562	-0.06335889816284179	-0.0551697006225586	0.9261849975585937	-0.07661380004882813	-0.057396198272705076	0.9466290283203125	-0.09101290130615235	-0.05945750045776367	0.9822379760742187	-0.049776100158691404	-0.027662399291992188	0.9006840209960938	-0.06304079818725586	-0.030170900344848633	0.9211179809570312	-0.07828459930419922	-0.03328630065917969	0.9463250122070312	-0.09347039794921876	-0.03735940170288086	0.982656982421875	-0.047777198791503904	-0.0028581800460815428	0.9238150024414062	-0.06463030242919922	-0.0049482698440551755	0.9381599731445313	-0.08287090301513672	-0.009128049850463867	0.9567849731445313	-0.09605619812011719	-0.018793399810791016	0.9914450073242187	-0.05242300033569336	0.015678299903869628	0.9503699951171874	-0.0672156982421875	0.012836899757385254	0.9630889892578125	-0.079943603515625	0.007921710014343261	0.9768870239257812	-0.090489501953125	-0.0026016700267791747	1.0017100219726562	-0.1123030014038086	-0.035091800689697264	1.0623599853515624
16	0.5333333333333333	-0.06363740158081055	-0.09854769897460937	0.9568770141601562	-0.0721906967163086	-0.0877739028930664	0.9821439819335938	-0.08221330261230468	-0.08186430358886719	1.01297998046875	-0.08893689727783204	-0.05869509887695312	1.0405699462890625	-0.049700801849365234	-0.05339239883422851	0.9069550170898437	-0.06343209838867188	-0.055943401336669925	0.9261680297851562	-0.0765333023071289	-0.05812789916992187	0.9466680297851563	-0.09092769622802735	-0.06003010177612305	0.9823159790039062	-0.04996210098266601	-0.02840839958190918	0.900552001953125	-0.06315420150756836	-0.030842500686645506	0.9210700073242187	-0.07833090209960937	-0.03394369888305664	0.9463690185546875	-0.09342099761962891	-0.03798809814453125	0.9826060180664062	-0.047892799377441404	-0.003605600118637085	0.92360400390625	-0.06467970275878906	-0.005676219940185547	0.9380590209960937	-0.08289530181884766	-0.009836950302124024	0.95668701171875	-0.09603919982910156	-0.019421199798583984	0.9914650268554688	-0.05238919830322265	0.01507830047607422	0.9502349853515625	-0.06725340270996094	0.012236700057983399	0.96297998046875	-0.07989510345458985	0.007311049938201904	0.976802001953125	-0.09048799896240234	-0.003196500062942505	1.0017000122070312	-0.1123030014038086	-0.03557699966430664	1.06225
